<mxfile host="app.diagrams.net" modified="2023-06-04T15:45:29.192Z" agent="Mozilla/5.0 (Windows NT 10.0; Win64; x64) AppleWebKit/537.36 (KHTML, like Gecko) Chrome/114.0.0.0 Safari/537.36" version="21.3.6" etag="xJpIICSEiZ5BdW8ttlkn" type="github">
  <diagram name="Page-1" id="ES1lR_uWMl53R7PRU7CF">
    <mxGraphModel>
      <root>
        <mxCell id="0" />
        <mxCell id="1" parent="0" />
      </root>
    </mxGraphModel>
  </diagram>
</mxfile>
